<svg width="47" height="47" viewBox="0 0 47 47" fill="none" xmlns="http://www.w3.org/2000/svg">
<path d="M38.0499 27.7412L32.5134 26.6339L29.5779 22.2305L31.2321 17.2648C31.4061 16.7466 31.3545 16.1815 31.0925 15.7024C30.8286 15.2243 30.3792 14.8772 29.8494 14.7452L22.5439 12.9188L17.0514 7.42728C16.6651 7.03906 16.1315 6.84112 15.5788 6.85546C15.028 6.88033 14.5155 7.13564 14.1617 7.55828L4.37005 19.3083C3.78102 20.0149 3.76381 21.0371 4.32989 21.7639L14.5098 34.8526C17.126 38.2165 21.0694 40.1452 25.3303 40.1452H36.8202C40.2741 40.1452 43.0835 37.3358 43.0835 33.882C43.0835 30.9072 40.9664 28.3245 38.0499 27.7412ZM36.8202 36.2285H25.3303C22.2877 36.2285 19.4687 34.8506 17.6003 32.4486L8.38807 20.604L9.44039 19.3414L16.0952 27.6599C16.4834 28.1437 17.0514 28.3952 17.627 28.3952C18.0554 28.3952 18.4876 28.2547 18.8491 27.9659C19.6925 27.2908 19.8302 26.0582 19.1551 25.2139L12.0002 16.2703L15.7988 11.713L20.1572 16.0715C20.4077 16.323 20.7233 16.5008 21.0675 16.5869L26.8488 18.0317L25.5598 21.9006C25.3686 22.4743 25.4527 23.1035 25.7874 23.6065L29.7041 29.4815C29.9929 29.9137 30.4404 30.2139 30.9491 30.3153L37.2811 31.5813C38.3731 31.8003 39.1668 32.768 39.1668 33.882C39.1668 35.1758 38.115 36.2285 36.8202 36.2285Z" fill="black"/>
</svg>
