<svg width="47" height="47" viewBox="0 0 47 47" fill="none" xmlns="http://www.w3.org/2000/svg">
<path d="M47 20.21H43.6696C43.4849 19.231 42.6262 18.33 41.5941 18.33H40.1841C40.1037 18.33 39.95 18.032 39.95 18.041V14.962C39.95 13.7959 39.0001 12.69 37.8341 12.69H34.5441C33.378 12.69 32.43 13.7959 32.43 14.962V20.21H14.57V14.962C14.57 13.7959 13.6201 12.69 12.4541 12.69H9.16406C7.99799 12.69 7.05 13.7959 7.05 14.962V18.0701C7.05 18.0612 6.89443 18.33 6.81406 18.33H5.40406C4.38228 18.33 3.52735 19.2451 3.33183 20.21H0V26.79H3.29376C3.32055 27.9335 4.25444 28.67 5.40406 28.67H6.81406C6.89443 28.67 7.05 28.8416 7.05 28.8326V32.352C7.05 33.5181 7.99799 34.31 9.16406 34.31H12.4541C13.6201 34.31 14.57 33.5181 14.57 32.352V26.79H32.43V32.352C32.43 33.5181 33.378 34.31 34.5441 34.31H37.8341C39.0001 34.31 39.95 33.5181 39.95 32.352V28.803C39.95 28.8119 40.1037 28.67 40.1841 28.67H41.5941C42.7338 28.67 43.6592 27.9194 43.7011 26.79H47V20.21ZM1.88 22.09H3.29V24.91H1.88V22.09ZM7.05 26.555C7.05 26.6847 6.94472 26.79 6.815 26.79H5.405C5.27528 26.79 5.17 26.6847 5.17 26.555V20.445C5.17 20.3153 5.27528 20.21 5.405 20.21H6.815C6.94472 20.21 7.05 20.3153 7.05 20.445V26.555ZM12.69 32.352C12.69 32.4794 12.5814 32.43 12.4541 32.43H9.16406C9.03669 32.43 8.93 32.4794 8.93 32.352V26.7411V20.6311V14.962C8.93 14.8346 9.03669 14.57 9.16406 14.57H12.4541C12.5814 14.57 12.69 14.8346 12.69 14.962V32.352ZM14.57 24.91V22.09H32.43V24.91H14.57ZM38.07 32.352C38.07 32.4794 37.9614 32.43 37.8341 32.43H34.5441C34.4167 32.43 34.31 32.4794 34.31 32.352V14.962C34.31 14.8346 34.4167 14.57 34.5441 14.57H37.8341C37.9614 14.57 38.07 14.8346 38.07 14.962V20.602V26.712V32.352ZM41.83 26.555C41.83 26.6847 41.7247 26.79 41.595 26.79H40.185C40.0553 26.79 39.95 26.6847 39.95 26.555V20.445C39.95 20.3153 40.0553 20.21 40.185 20.21H41.595C41.7247 20.21 41.83 20.3153 41.83 20.445V26.555ZM45.12 24.91H43.71V22.09H45.12V24.91Z" fill="#231F20"/>
</svg>
