<svg width="50" height="53" viewBox="0 0 50 53" fill="none" xmlns="http://www.w3.org/2000/svg">
<g clip-path="url(#clip0_8_152)">
<path d="M36.7771 13.9404L36.7176 13.7185C35.8386 10.4556 33.7013 7.67459 30.7745 5.98542C27.8477 4.29626 24.3705 3.8369 21.1055 4.70811L12.3113 7.06597C9.04839 7.945 6.26735 10.0823 4.57819 13.0091C2.88902 15.9358 2.42967 19.4131 3.30087 22.6781L6.53946 34.7571C7.30976 37.65 8.95716 40.2333 11.2552 42.1519L12.5925 43.2724L12.9493 44.6035C13.4506 46.4684 14.6719 48.0579 16.3447 49.0227C18.0175 49.9874 20.005 50.2485 21.8702 49.7484L37.6956 45.5053C39.5615 45.005 41.1523 43.784 42.118 42.1108C43.0837 40.4376 43.3451 38.4493 42.8448 36.5833L42.5427 35.4563L43.2153 34.3581C44.2416 32.6718 44.916 30.7952 45.1978 28.8413C45.4796 26.8875 45.363 24.8968 44.8549 22.9892L43.8766 19.3405C43.4567 17.7817 42.5317 16.4061 41.2465 15.4291C39.9613 14.4521 38.3885 13.9288 36.7741 13.9412L36.7771 13.9404ZM36.7551 41.986L20.9268 46.2298C20.4649 46.3536 19.9832 46.3853 19.5091 46.323C19.035 46.2606 18.5778 46.1055 18.1636 45.8665C17.3272 45.3837 16.7168 44.5885 16.4667 43.6557L39.3307 37.5255C39.4546 37.9875 39.4862 38.4694 39.4238 38.9436C39.3614 39.4178 39.2062 39.8751 38.967 40.2893C38.7278 40.7035 38.4094 41.0666 38.0299 41.3577C37.6503 41.6488 37.2172 41.8623 36.7551 41.986ZM41.3408 23.9314C41.7212 25.3622 41.8082 26.8552 41.5965 28.3205C41.3848 29.7858 40.8788 31.1932 40.109 32.4578L39.3132 33.7587L14.7646 40.3406L13.5932 39.3595C11.8688 37.9188 10.6328 35.9796 10.055 33.8082L8.45093 27.8257C9.68555 28.159 10.9864 28.1597 12.2214 27.8278L24.5327 24.5269C24.9991 24.4019 25.3967 24.0967 25.6381 23.6785C25.8794 23.2602 25.9448 22.7633 25.8197 22.2969C25.6947 21.8305 25.3895 21.4329 24.9713 21.1915C24.553 20.9501 24.0561 20.8848 23.5897 21.0098L11.2799 24.3103C10.8178 24.4344 10.3358 24.4662 9.86147 24.4039C9.3871 24.3416 8.92965 24.1865 8.51527 23.9473C8.10089 23.7082 7.7377 23.3897 7.44647 23.0101C7.15523 22.6305 6.94166 22.1973 6.81795 21.7351C6.19557 19.4028 6.52368 16.9189 7.73029 14.8283C8.9369 12.7376 10.9235 11.2109 13.2543 10.5831L22.0485 8.22519C24.3807 7.60281 26.8646 7.93091 28.9553 9.13753C31.0459 10.3441 32.5727 12.3307 33.2005 14.6615L33.26 14.8834C31.856 15.6803 30.7559 16.9202 30.1318 18.4091C29.5078 19.898 29.395 21.5518 29.8113 23.1116L31.2257 28.3873C31.3508 28.8537 31.656 29.2513 32.0742 29.4926C32.4924 29.734 32.9894 29.7994 33.4558 29.6743C33.9222 29.5493 34.3198 29.2441 34.5611 28.8259C34.8025 28.4076 34.8679 27.9107 34.7428 27.4443L33.3283 22.1687C33.0782 21.2357 33.2089 20.2415 33.6918 19.4049C34.1746 18.5683 34.97 17.9578 35.903 17.7076C36.836 17.4575 37.8301 17.5882 38.6667 18.0711C39.5033 18.5539 40.1138 19.3493 40.364 20.2823L41.3408 23.9314Z" fill="#E73539"/>
</g>
<defs>
<clipPath id="clip0_8_152">
<rect width="50" height="52.5737" fill="white"/>
</clipPath>
</defs>
</svg>
