<svg width="38" height="47" viewBox="0 0 38 47" fill="none" xmlns="http://www.w3.org/2000/svg">
<path d="M35.3453 15.8192C35.477 14.5004 35.4876 13.1734 35.4924 11.8487C36.0403 4.24698 27.4163 1.48854 21.2993 0.628753C17.5767 0.155572 13.617 -0.679313 10.0723 1.01062C7.14067 2.26295 4.37393 4.2707 2.85596 7.13469C0.865988 10.9794 -0.24403 15.6081 0.932399 19.8667C1.39135 21.2435 2.28197 22.3476 3.41334 23.1007C3.39792 23.1374 3.3825 23.1742 3.37064 23.2122C3.00894 24.4313 3.06349 25.7263 3.02791 26.9857C2.95913 28.5512 3.10974 30.1225 3.69321 31.5871C4.75579 34.4784 6.33662 37.6282 9.13301 39.088C9.07134 39.1841 9.02272 39.2884 8.98952 39.3952C8.65153 40.4993 8.89346 41.6721 8.85669 42.8059C8.69659 45.1552 9.81373 46.6886 12.2176 46.908C14.0036 47.119 15.799 46.9008 17.591 46.902C19.8857 46.9518 22.1639 46.6328 24.4551 46.5605C25.1773 46.5415 25.9019 46.5166 26.6253 46.5166C27.6499 46.487 28.8773 46.6696 29.6399 45.8311C30.776 44.395 31.0997 42.5046 31.2539 40.727C31.2646 40.6321 31.267 40.5419 31.2634 40.4554C32.5537 40.4317 34.5685 38.2164 35.2255 37.3767C36.8775 35.4141 37.2784 32.7706 37.2819 30.2814C37.3353 28.1847 37.442 26.0892 37.5025 23.9925C37.7504 19.5026 37.002 17.0513 35.3477 15.8192H35.3453ZM29.0979 42.8746C29.0315 43.2269 28.9094 43.5649 28.7777 43.8981C28.6888 44.2088 28.454 44.3843 28.1302 44.3784C25.6967 44.4519 23.2668 44.1448 20.8333 44.1021C18.5539 43.8554 12.6943 44.6523 11.1929 43.4901C11.1491 42.5058 11.1503 41.518 11.0649 40.5348C11.0672 40.5123 11.0684 40.4874 11.0696 40.4649C15.4895 40.4506 19.9082 40.2977 24.3293 40.3415C26.0205 40.3356 27.7104 40.2336 29.4003 40.217C29.3896 40.2633 29.3802 40.3095 29.373 40.3593C29.2722 41.1966 29.1786 42.0362 29.0967 42.8746H29.0979ZM34.7986 31.2882C34.6029 32.7635 33.8345 34.0692 32.8039 35.1199C32.2086 35.8434 31.5611 36.511 30.7155 36.9391C30.4083 37.1372 30.189 37.4348 30.0538 37.774C28.4042 37.7705 26.7605 37.6222 25.1144 37.5297C22.8054 37.4681 20.4929 37.538 18.1827 37.4526C15.9781 37.4123 13.7711 37.3483 11.5677 37.4408C11.4491 37.2534 11.2795 37.0743 11.072 37.0079C10.4778 36.8146 9.90623 36.5573 9.39273 36.1979C7.16676 34.4855 6.0271 31.7674 5.40805 29.099C5.24795 27.5775 5.38196 26.0346 5.41398 24.5072C5.44007 24.3494 5.45786 24.1799 5.46379 24.0067C6.10418 24.1704 6.77541 24.2451 7.45731 24.219C9.20535 24.219 10.9724 24.2854 12.7062 24.0174C13.1592 23.9427 13.3347 23.3699 13.2908 22.9785C13.2458 22.5801 12.954 22.1353 12.501 22.2101C10.8028 22.4757 9.06304 22.3488 7.39446 21.9527C3.98139 20.9957 3.16311 18.6369 3.34218 15.3602C3.30186 13.158 3.53193 10.8751 4.54826 8.88747C5.2017 7.698 6.30341 6.87023 7.4241 6.15038C13.0489 2.76696 20.4514 1.28931 26.547 4.27545C28.7398 5.51473 31.2622 6.60577 32.6889 8.77837C33.3471 9.9465 33.1905 11.3257 33.1763 12.6136C33.1549 13.375 33.1419 14.1399 33.1051 14.9013C31.1329 14.5348 28.5322 14.8254 25.3552 15.2724C21.3159 15.5903 17.4534 18.3025 17.7451 22.7093C18.0594 26.241 18.9097 29.424 22.2504 31.2064C23.2905 31.8112 24.512 32.2216 25.7157 31.9239C26.1972 31.8492 26.6668 31.6215 26.853 31.1459C27.1637 30.5138 27.0617 29.6742 26.5363 29.1868C26.0501 28.6982 25.354 29.0967 24.761 29.0006C23.8206 28.8725 23.0106 28.3223 22.2374 27.8076C21.2056 27.1269 20.6056 26.0548 20.3067 24.8772C19.8691 23.3758 19.6141 21.6859 20.4502 20.2711C21.8769 17.6561 25.0741 17.1604 27.791 17.3573C29.7193 17.5518 33.1063 17.3751 34.278 19.1634C35.082 20.8937 34.9409 22.9145 35.1496 24.7799C35.3157 26.9585 35.1864 29.1358 34.7998 31.2859L34.7986 31.2882Z" fill="black"/>
</svg>
